<?xml version="1.0" standalone="no"?>
<!DOCTYPE svg PUBLIC "-//W3C//DTD SVG 20010904//EN"
 "http://www.w3.org/TR/2001/REC-SVG-20010904/DTD/svg10.dtd">
<svg version="1.0" xmlns="http://www.w3.org/2000/svg"
 width="512.000000pt" height="512.000000pt" viewBox="0 0 512.000000 512.000000"
 preserveAspectRatio="xMidYMid meet">
<metadata>
Created by potrace 1.16, written by Peter Selinger 2001-2019
</metadata>
<g transform="translate(0.000000,512.000000) scale(0.100000,-0.100000)"
fill="#000000" stroke="none">
<path d="M799 5088 c-23 -18 -53 -53 -66 -77 l-23 -44 0 -598 0 -598 -208
-164 c-115 -90 -219 -168 -232 -172 -36 -11 -111 -86 -131 -130 -18 -38 -19
-110 -19 -1575 0 -1468 1 -1537 19 -1575 23 -51 98 -118 149 -133 30 -9 594
-12 2289 -12 l2249 0 52 26 c28 14 66 43 83 65 60 76 59 64 59 851 l0 719 -25
24 c-32 33 -83 34 -113 2 l-22 -23 -2 -633 -3 -634 -847 664 c-466 365 -846
667 -845 671 2 8 1685 1318 1692 1318 3 0 5 -248 5 -550 l0 -551 26 -26 c21
-21 32 -24 62 -20 71 12 67 -32 70 675 2 462 0 648 -9 677 -18 63 -65 122
-122 154 -29 16 -143 101 -254 188 l-203 158 0 578 c0 388 -4 593 -11 622 -12
49 -66 118 -110 140 -24 13 -142 15 -823 15 l-795 0 -15 -22 c-22 -30 -20 -60
5 -91 l20 -27 760 -2 761 -3 24 -28 24 -28 0 -1052 0 -1052 -300 -232 -299
-233 -1107 0 -1106 0 -294 228 -293 227 -1 1058 c0 672 4 1065 10 1077 21 39
49 40 811 40 726 0 739 0 759 20 22 22 26 70 10 101 -10 19 -30 19 -815 19
l-803 0 -43 -32z m-92 -1625 c-3 -2 -31 -3 -63 -1 l-58 3 59 47 60 48 3 -46
c2 -25 1 -48 -1 -51z m3782 50 c25 -20 50 -40 56 -45 5 -4 -19 -8 -53 -8 l-62
0 0 45 c0 25 3 45 6 45 4 0 28 -17 53 -37z m-3779 -394 c0 -99 -4 -179 -8
-177 -29 11 -400 313 -396 320 18 28 73 37 237 38 l167 0 0 -181z m4086 165
c19 -9 34 -20 34 -24 0 -5 -90 -78 -200 -164 l-200 -156 0 180 0 180 166 0
c132 0 173 -3 200 -16z m-3622 -919 c437 -341 795 -623 796 -626 0 -4 -372
-298 -827 -655 -456 -356 -836 -654 -846 -662 -16 -14 -17 49 -17 1312 l0
1327 49 -38 c27 -21 408 -317 845 -658z m2285 -179 c-2 -2 -62 -50 -134 -105
l-130 -101 -632 0 -633 0 -122 96 c-68 53 -127 100 -132 105 -6 5 354 9 889 9
494 0 896 -2 894 -4z m-489 -380 c-18 -17 -325 -255 -360 -279 -53 -37 -65
-29 -444 271 l-29 22 424 0 c359 0 421 -2 409 -14z m1112 -998 c416 -326 757
-596 757 -600 1 -4 -14 -15 -31 -25 -31 -17 -142 -18 -2248 -15 -1948 3 -2218
5 -2238 18 -13 9 -22 20 -20 25 3 10 1798 1419 1808 1419 3 0 74 -54 159 -121
85 -66 168 -127 185 -136 47 -25 138 -29 191 -8 26 9 121 75 212 145 l165 129
152 -120 c83 -65 492 -385 908 -711z"/>
<path d="M1940 4210 c-26 -26 -26 -80 -1 -111 l19 -24 606 0 605 0 23 22 c31
31 30 89 -1 114 -22 18 -52 19 -627 19 -591 0 -604 0 -624 -20z"/>
<path d="M1335 3795 c-30 -29 -32 -74 -6 -106 l19 -24 1210 -3 1209 -2 27 21
c35 27 37 86 3 117 l-23 22 -1208 0 -1207 0 -24 -25z"/>
<path d="M1331 3424 c-39 -49 -18 -115 41 -129 13 -3 560 -4 1216 -3 l1194 3
19 24 c25 31 25 85 -1 111 -20 20 -33 20 -1234 20 l-1215 0 -20 -26z"/>
<path d="M1331 3054 c-38 -48 -19 -108 38 -125 24 -7 423 -9 1224 -7 l1189 3
19 24 c25 31 25 85 -1 111 -20 20 -33 20 -1234 20 l-1215 0 -20 -26z"/>
<path d="M1359 2709 c-27 -10 -49 -46 -49 -78 0 -10 9 -30 21 -45 l20 -26
1215 0 c1201 0 1214 0 1234 20 26 26 26 80 1 111 l-19 24 -1199 2 c-749 1
-1208 -2 -1224 -8z"/>
</g>
</svg>
